<?xml version="1.0" encoding="UTF-8"?>
<svg width="160px" height="100px" viewBox="0 0 160 100" version="1.1" xmlns="http://www.w3.org/2000/svg" xmlns:xlink="http://www.w3.org/1999/xlink">
    <title>illus</title>
    <g id="跨链桥" stroke="none" stroke-width="1" fill="none" fill-rule="evenodd">
        <g id="钱包未连接" transform="translate(-641.000000, -1026.000000)">
            <g id="编组-7备份" transform="translate(220.000000, 742.000000)">
                <g id="编组-6备份" transform="translate(32.000000, 165.000000)">
                    <g id="编组-11" transform="translate(382.000000, 119.000000)">
                        <g id="illus" transform="translate(7.000000, 0.000000)">
                            <rect id="矩形" stroke="#979797" fill="#D8D8D8" opacity="0" x="0.5" y="0.5" width="159" height="99"></rect>
                            <ellipse id="椭圆形" fill="#EDF0FD" cx="79.9951075" cy="74" rx="73" ry="16"></ellipse>
                            <g id="钱包" transform="translate(45.995107, 9.000000)">
                                <path d="M0,18.8295472 C0,10.7464531 6.50186465,4.17682148 14.5209565,4.17682148 L53.2460172,4.17682148 C61.2651091,4.17682148 67.7669737,10.7464531 67.7669737,18.8220175 L67.7669737,40.801106 C67.7669737,48.8954945 61.2651091,55.4500684 53.2460172,55.4500684 L14.5209565,55.4500684 C6.50186465,55.4538316 0,48.9030242 0,40.8086356 L0,18.8295472 Z" id="路径" fill="#EDF0FD"></path>
                                <path d="M10.9330718,18.2422334 C10.0198234,15.7156074 11.3088324,12.924433 13.8244626,11.981318 L45.6636458,0.295279832 C46.8729133,-0.148716692 48.209607,-0.0900660098 49.3753393,0.458139405 C50.5410716,1.00634482 51.4387864,1.99846269 51.8680887,3.21302454 L56.8376668,16.9847795 C57.7538332,19.5106933 56.4588713,22.3024291 53.9387463,23.2344004 L22.1070928,34.9354979 C20.8975041,35.3731564 19.5634729,35.3114737 18.3994317,34.7640635 C17.2353905,34.2166534 16.3370385,33.22852 15.9026498,32.0177532 L10.9330718,18.2459983 L10.9330718,18.2422334 Z" id="路径" fill="#4D6AEC"></path>
                                <rect id="矩形" fill="#C6D9FF" x="0" y="13" width="68" height="51" rx="8"></rect>
                                <path d="M50.8252303,35.9218838 C49.4843646,35.9301721 48.4023453,37.0206052 48.4044403,38.3614949 C48.4044403,39.7168344 49.488715,40.8048708 50.8252303,40.8048708 C51.4705717,40.8028822 52.0885786,40.544094 52.542782,40.0856524 C52.9969853,39.6272108 53.2500224,39.0068269 53.2460641,38.3614949 C53.2481153,37.0206052 52.1660961,35.9301721 50.8252303,35.9218838 Z M43.562772,38.3614949 C43.562772,34.3218303 46.8156843,31.0388969 50.8252303,31.0388969 C54.8347763,31.0388969 58.0876886,34.3218303 58.0876886,38.3614949 C58.0975987,40.2965384 57.337719,42.1561396 55.9754343,43.5304299 C54.6131496,44.9047202 52.7602871,45.680887 50.8252303,45.6878577 C48.8901735,45.680887 47.0373111,44.9047203 45.6750264,43.53043 C44.3127417,42.1561397 43.5528619,40.2965384 43.562772,38.3614949 L43.562772,38.3614949 Z" id="形状" fill="#FFFFFF" fill-rule="nonzero"></path>
                            </g>
                        </g>
                    </g>
                </g>
            </g>
        </g>
    </g>
</svg>