<?xml version="1.0" encoding="UTF-8"?>
<svg width="160px" height="100px" viewBox="0 0 160 100" version="1.1" xmlns="http://www.w3.org/2000/svg" xmlns:xlink="http://www.w3.org/1999/xlink">
    <title>illus</title>
    <g id="跨链桥" stroke="none" stroke-width="1" fill="none" fill-rule="evenodd">
        <g id="没有记录" transform="translate(-640.000000, -1028.000000)">
            <g id="编组-7备份" transform="translate(220.000000, 744.000000)">
                <g id="编组-6备份" transform="translate(32.000000, 165.000000)">
                    <g id="illus" transform="translate(388.000000, 119.000000)">
                        <rect id="矩形" stroke="#979797" fill="#D8D8D8" opacity="0" x="0.5" y="0.5" width="159" height="99"></rect>
                        <ellipse id="椭圆形" fill="#EDF0FD" opacity="0.5" cx="79.9951075" cy="79" rx="73" ry="16"></ellipse>
                        <g id="钱包" transform="translate(45.995107, 14.000000)">
                            <path d="M8.52651283e-14,23.5298702 C8.52651283e-14,18.1698587 6.50186465,13.813445 14.5209565,13.813445 L53.2460172,13.813445 C61.2651091,13.813445 67.7669737,18.1698587 67.7669737,23.5248772 L67.7669737,38.0995151 C67.7669737,43.4670162 61.2651091,47.813445 53.2460172,47.813445 L14.5209565,47.813445 C6.50186465,47.8159404 8.52651283e-14,43.4720093 8.52651283e-14,38.1045081 L8.52651283e-14,23.5298702 Z" id="路径" fill="#EDF0FD"></path>
                            <path d="M14,0 L44.5358326,0 L44.5358326,0 L62,15.6729696 L62,56 C62,60.418278 58.418278,64 54,64 L14,64 C9.581722,64 6,60.418278 6,56 L6,8 C6,3.581722 9.581722,8.11624501e-16 14,0 Z" id="矩形" fill="#C6D9FF"></path>
                            <g id="14_搜索" transform="translate(18.000000, 20.000000)">
                                <path d="M16.4825263,8.07621053 L8.06147368,8.07621053 C7.36673684,8.07621053 6.79831579,7.50778947 6.79831579,6.81305263 C6.79831579,6.11831579 7.36673684,5.54989474 8.06147368,5.54989474 L16.4825263,5.54989474 C17.1772632,5.54989474 17.7456842,6.11831579 17.7456842,6.81305263 C17.7456842,7.50778947 17.1772632,8.07621053 16.4825263,8.07621053 L16.4825263,8.07621053 Z M19.8509474,13.5498947 L8.06147368,13.5498947 C7.36673684,13.5498947 6.79831579,12.9814737 6.79831579,12.2867368 C6.79831579,11.592 7.36673684,11.0235789 8.06147368,11.0235789 L19.8509474,11.0235789 C20.5456842,11.0235789 21.1141053,11.592 21.1141053,12.2867368 C21.1141053,12.9814737 20.5456842,13.5498947 19.8509474,13.5498947 L19.8509474,13.5498947 Z" id="形状" fill="#FFFFFF" fill-rule="nonzero"></path>
                                <path d="M0,16 C0,24.836556 7.163444,32 16,32 C24.836556,32 32,24.836556 32,16 C32,7.163444 24.836556,5.98351777e-15 16,5.98351777e-15 C7.163444,5.98351777e-15 0,7.163444 0,16 Z" id="路径" fill="#F7F8FF"></path>
                                <path d="M14.7482105,21.2745263 C11.0336842,21.2745263 8.01136842,18.2522105 8.01136842,14.5376842 C8.01136842,10.8231579 11.0336842,7.80084211 14.7482105,7.80084211 C18.4627368,7.80084211 21.4850526,10.8231579 21.4850526,14.5376842 C21.4850526,18.2522105 18.4627368,21.2745263 14.7482105,21.2745263 Z M14.7482105,10.3271579 C12.4265263,10.3271579 10.5376842,12.216 10.5376842,14.5376842 C10.5376842,16.8593684 12.4265263,18.7482105 14.7482105,18.7482105 C17.0698947,18.7482105 18.9587368,16.8593684 18.9587368,14.5376842 C18.9587368,12.216 17.0698947,10.3271579 14.7482105,10.3271579 L14.7482105,10.3271579 Z" id="形状" fill="#4D6AEC"></path>
                                <path d="M21.8336842,23.8307368 L17.6652632,19.6623158 C17.1739513,19.1681436 17.1739513,18.3699616 17.6652632,17.8757895 C18.1594353,17.3844776 18.9576173,17.3844776 19.4517895,17.8757895 L23.6202105,22.0437895 C24.1115224,22.5379616 24.1115224,23.3361436 23.6202105,23.8303158 C23.1262493,24.3219745 22.3278771,24.3221627 21.8336842,23.8307368 L21.8336842,23.8307368 Z" id="路径" fill="#4D6AEC"></path>
                            </g>
                            <path d="M44.5358326,0 L62,15.6729696 L50.5358326,15.6729696 C47.2221241,15.6729696 44.5358326,12.9866781 44.5358326,9.6729696 L44.5358326,0 L44.5358326,0 Z" id="矩形" fill="#4D6AEC"></path>
                        </g>
                    </g>
                </g>
            </g>
        </g>
    </g>
</svg>