<?xml version="1.0" encoding="UTF-8"?>
<svg width="96px" height="32px" viewBox="0 0 96 32" version="1.1" xmlns="http://www.w3.org/2000/svg" xmlns:xlink="http://www.w3.org/1999/xlink">
    <title>Logo / Web</title>
    <g id="Logo-/-Web" stroke="none" stroke-width="1" fill="none" fill-rule="evenodd">
        <rect id="矩形备份-3" fill="#FFFFFF" opacity="0" x="0" y="0" width="96" height="32"></rect>
        <g id="资源-1备份" transform="translate(5.000000, 2.000000)" fill="#245AA7" fill-rule="nonzero">
            <circle id="椭圆形" transform="translate(20.402690, 14.006229) rotate(-76.660000) translate(-20.402690, -14.006229) " cx="20.4026898" cy="14.0062293" r="5.40359229"></circle>
            <circle id="椭圆形" transform="translate(13.823349, 24.255357) rotate(-44.470000) translate(-13.823349, -24.255357) " cx="13.8233487" cy="24.2553573" r="2.64797551"></circle>
            <circle id="椭圆形" transform="translate(13.821833, 3.744643) rotate(-44.470000) translate(-13.821833, -3.744643) " cx="13.8218325" cy="3.74464266" r="2.64797551"></circle>
            <path d="M0.251520533,6.55004681 C-0.375684943,8.23429276 0.198787956,10.130038 1.65540204,11.1828184 C3.11201612,12.2355988 5.09227872,12.1863106 6.49471482,11.0623693 L6.49471482,11.0623693 C7.48006536,10.3426449 8.7605958,10.1647935 9.90479059,10.5887477 C10.6377162,10.8534135 11.2648102,11.3490444 11.6916359,12.0010013 L11.6916359,12.0010013 L11.7562206,12.1000312 L11.7562206,12.1000312 C11.9411058,12.4010978 12.2215534,12.6315196 12.5527661,12.7544902 C13.385047,13.0612452 14.3084181,12.6352222 14.615173,11.8029413 C14.921928,10.9706604 14.495905,10.0472893 13.6636241,9.74053438 C13.3130911,9.61357529 12.9291331,9.61357529 12.5786,9.74053438 L12.5786,9.74053438 C11.651396,10.0358053 10.6445056,9.94687876 9.78340598,9.49366842 C8.92230634,9.04045808 8.27894305,8.26083007 7.9973871,7.32936969 L7.9973871,7.32936969 L7.96724754,7.21742275 L7.91988537,7.10117017 L7.89835712,7.0193628 C7.4946061,5.3005657 6.01169512,4.0497857 4.24942942,3.94162863 C2.48716372,3.83347155 0.862428057,4.89352324 0.251520533,6.55004681 Z" id="路径"></path>
            <path d="M0.260131836,21.4562114 C-0.359231026,19.7731266 0.217378334,17.88352 1.67090313,16.8329724 C3.12442793,15.7824248 5.09953214,15.8277585 6.50332612,16.9438889 L6.50332612,16.9438889 C7.30587909,17.5262894 8.31157136,17.7554359 9.28720824,17.5781952 C10.2628451,17.4009545 11.1236802,16.8327222 11.6701076,16.0052569 L11.6701076,16.0052569 L11.7303867,15.9062269 L11.7303867,15.9062269 C11.9139815,15.6040384 12.1948692,15.3732551 12.5269322,15.251768 C13.0653236,15.0533323 13.6686819,15.1571985 14.1097279,15.5242413 C14.5507739,15.891284 14.7625023,16.4657408 14.6651569,17.0312192 C14.5678116,17.5966977 14.1761816,18.0672881 13.6377902,18.2657238 C13.2887469,18.3927407 12.906115,18.3927407 12.5570717,18.2657238 L12.5570717,18.2657238 C11.6304394,17.9705649 10.6241193,18.0596029 9.76370731,18.5128772 C8.90329537,18.9661516 8.26076733,19.7457449 7.98016449,20.6768885 L7.98016449,20.6768885 L7.95002493,20.7888354 C7.93797474,20.8255826 7.92791363,20.8629524 7.91988537,20.9007824 L7.89835712,20.9825897 C7.49074319,22.6950092 6.01156545,23.9396884 4.25467568,24.0486275 C2.49778591,24.1575665 0.876173151,23.1051572 0.260131836,21.4562114 Z" id="路径"></path>
            <rect id="矩形" x="66.3475726" y="1.07325845" width="4.33148514" height="25.8080735"></rect>
            <rect id="矩形" x="46.4726865" y="8.17327733" width="3.24646103" height="18.7080546"></rect>
            <polygon id="矩形" transform="translate(77.785535, 12.646849) rotate(-90.000000) translate(-77.785535, -12.646849) " points="75.6197925 6.70720308 79.9512776 6.70720308 79.9512776 18.5864948 75.6197925 18.5864948"></polygon>
            <rect id="矩形" x="81.7833322" y="22.5756807" width="4.33148514" height="4.33148514"></rect>
            <path d="M81.1762354,1.09909236 L81.1762354,1.09909236 C77.3955929,1.11096329 74.3383987,4.18164226 74.3431613,7.96230042 L74.3431613,26.9071658 L78.6703464,26.9071658 L78.6703464,7.96230042 L78.6703464,7.96230042 C78.6702961,6.57481067 79.788796,5.44670163 81.1762354,5.43488315 L83.7251809,5.43488315 L83.7251809,1.09909236 L81.1762354,1.09909236 Z" id="路径"></path>
            <path d="M40.3629674,8.17327733 C35.1956918,8.17327733 31.0067873,12.3621819 31.0067873,17.5294575 C31.0067873,22.696733 35.1956918,26.8856376 40.3629674,26.8856376 C45.530243,26.8856376 49.7191475,22.696733 49.7191475,17.5294575 C49.7191475,12.3621819 45.530243,8.17327733 40.3629674,8.17327733 Z M40.9054794,23.0923605 C38.6533627,23.0923605 36.6230851,21.7354854 35.7616402,19.654634 C34.9001952,17.5737827 35.3772915,15.1788902 36.9703944,13.5870194 C38.5634974,11.9951485 40.9587582,11.5199053 43.0389425,12.38296 C45.1191267,13.2460146 46.4744283,15.2773414 46.4726882,17.5294575 C46.4726882,19.0055769 45.8860062,20.4211756 44.8418284,21.4645458 C43.7976506,22.507916 42.3815985,23.0935013 40.9054794,23.0923605 Z" id="形状"></path>
            <polygon id="矩形" transform="translate(55.501637, 17.529457) rotate(-90.000000) translate(-55.501637, -17.529457) " points="53.8784066 8.50050682 57.1248676 8.50050682 57.1248676 26.5584081 53.8784066 26.5584081"></polygon>
            <path d="M56.4058239,22.9890232 C53.9915046,22.9938659 51.8492305,21.4420082 51.1013151,19.1464508 C50.3533997,16.8508934 51.1703268,14.3348985 53.1241176,12.9165675 C55.0779084,11.4982365 57.7232049,11.5008717 59.674166,12.9230925 C61.625127,14.3453134 62.4370398,16.8629309 61.6845523,19.1569936 L65.0171263,19.1569936 C65.1137756,18.6213032 65.1627645,18.0781019 65.1635185,17.5337631 C65.161633,13.0691345 62.0055271,9.2278716 57.6260615,8.36000455 C53.2465959,7.4921375 48.8641071,9.83949713 47.1597396,13.9660021 C45.4553721,18.0925071 46.9040472,22.8483084 50.619486,25.3238742 C54.3349249,27.79944 59.2818219,27.3049548 62.4337356,24.1429377 L59.9752087,21.6801052 C58.9775632,22.5246552 57.7129432,22.9884001 56.4058239,22.9890232 Z" id="路径"></path>
        </g>
    </g>
</svg>